<mxfile host="app.diagrams.net" modified="2023-04-23T20:36:08.620Z" agent="Mozilla/5.0 (Windows NT 10.0; Win64; x64) AppleWebKit/537.36 (KHTML, like Gecko) Chrome/111.0.0.0 Safari/537.36 OPR/97.0.0.0" version="21.2.1" etag="NOy5jzkI1oJ2D4Qse1dB" type="github">
  <diagram name="PÃ¡gina-1" id="Sz0pKATz0DPWwpEvPfAK">
    <mxGraphModel>
      <root>
        <mxCell id="0" />
        <mxCell id="1" parent="0" />
      </root>
    </mxGraphModel>
  </diagram>
</mxfile>
